<?xml version="1.0" encoding="utf-8"?>
<!-- Generator: Adobe Illustrator 26.0.1, SVG Export Plug-In . SVG Version: 6.00 Build 0)  -->
<svg version="1.1" id="Links_00000159441880056289073890000017515336220120625801_"
	 xmlns="http://www.w3.org/2000/svg" xmlns:xlink="http://www.w3.org/1999/xlink" x="0px" y="0px" viewBox="0 0 273 273"
	 style="enable-background:new 0 0 273 273;" xml:space="preserve">
<style type="text/css">
	.st0{display:none;fill:#9933FF;}
	.st1{fill:#010002;}
	.st2{fill:#FFFFFF;}
</style>
<rect class="st0" width="274.2" height="274.2"/>
<g id="Links">
	<path id="Outline" class="st1" d="M256.2,16.8C245.4,6,231,0,215.7,0C200.4,0,186,6,175.3,16.8l-40.8,40.8
		c-5.5,5.5-6.6,13.6-3.5,20.2C118.5,79.4,107,85,98,94l-81.3,81.3C6,186.1,0,200.4,0,215.7c0,15.3,5.9,29.7,16.8,40.5
		C27.6,267,41.9,273,57.2,273c15.3,0,29.7-6,40.5-16.8l40.8-40.8c3.4-3.4,5.2-7.9,5.2-12.7c0-2.7-0.6-5.2-1.7-7.6
		c12.4-1.6,23.9-7.2,32.9-16.2l81.3-81.3C267,86.9,273,72.5,273,57.2C273,42,267,27.6,256.2,16.8z M230.9,72.4l-81.3,81.3
		c-4,4-9.4,6.3-15.2,6.3s-11.1-2.2-15.2-6.3c-3.4-3.4-7.9-5.2-12.7-5.2c-4.8,0-9.3,1.9-12.7,5.2c-3.4,3.4-5.2,7.9-5.2,12.7
		c0,4.8,1.9,9.3,5.2,12.7c5.3,5.3,11.4,9.4,18.1,12.2l-39.7,39.7c-4.1,4-9.4,6.3-15.2,6.3c-5.7,0-11.1-2.2-15.2-6.3
		c-4.1-4.1-6.3-9.4-6.3-15.2c0-5.7,2.2-11.1,6.3-15.2l81.3-81.3c4.1-4.1,9.4-6.3,15.2-6.3c5.7,0,11.1,2.2,15.2,6.3
		c3.4,3.4,7.9,5.2,12.6,5.2c4.8,0,9.3-1.9,12.7-5.2c3.4-3.4,5.3-7.9,5.3-12.7c0-4.8-1.9-9.3-5.2-12.7c-5.3-5.3-11.4-9.4-18.1-12.2
		l39.7-39.7c4-4,9.4-6.3,15.2-6.3c5.7,0,11.1,2.2,15.2,6.3c4.1,4,6.3,9.4,6.3,15.2C237.2,63,234.9,68.3,230.9,72.4z"/>
	<path id="Lower" class="st2" d="M121.7,198.5l-40.8,40.8c-6.3,6.3-14.7,9.8-23.6,9.8c-8.9,0-17.3-3.5-23.6-9.8
		c-6.3-6.3-9.8-14.7-9.8-23.6c0-8.9,3.5-17.3,9.8-23.6l81.3-81.3c6.3-6.3,14.7-9.8,23.6-9.8c8.9,0,17.3,3.5,23.6,9.8
		c2.3,2.3,6.1,2.3,8.4,0c2.3-2.3,2.3-6.1,0-8.4c-8.5-8.6-19.9-13.3-32-13.3s-23.5,4.7-32,13.3l-81.3,81.3
		c-8.6,8.5-13.3,19.9-13.3,32c0,12.1,4.7,23.5,13.3,32c8.6,8.6,19.9,13.3,32,13.3s23.5-4.7,32-13.3l40.8-40.8c2.3-2.3,2.3-6.1,0-8.4
		S124,196.1,121.7,198.5z"/>
	<path id="Upper" class="st2" d="M247.8,25.2c-17.7-17.7-46.4-17.7-64.1,0L142.9,66c-2.3,2.3-2.3,6.1,0,8.4s6.1,2.3,8.4,0l40.8-40.8
		c13-13,34.2-13,47.2,0c6.3,6.3,9.8,14.7,9.8,23.6c0,8.9-3.5,17.3-9.8,23.6l-81.3,81.3c-13,13-34.2,13-47.2,0
		c-2.3-2.3-6.1-2.3-8.4,0c-2.3,2.3-2.3,6.1,0,8.4c8.8,8.8,20.4,13.3,32,13.3s23.2-4.4,32-13.2l81.3-81.3c8.6-8.6,13.3-19.9,13.3-32
		C261,45.1,256.3,33.7,247.8,25.2z"/>
</g>
</svg>
