<?xml version="1.0" encoding="utf-8"?>
<!-- Generator: Adobe Illustrator 26.0.1, SVG Export Plug-In . SVG Version: 6.00 Build 0)  -->
<svg version="1.1" id="Members" xmlns="http://www.w3.org/2000/svg" xmlns:xlink="http://www.w3.org/1999/xlink" x="0px" y="0px"
	 width="600px" height="600px" viewBox="0 0 600 600" style="enable-background:new 0 0 600 600;" xml:space="preserve">
<style type="text/css">
	.st0{opacity:0;}
	.st1{fill:none;}
</style>
<g id="Background_00000004515877592924797860000012951814590962037124_" class="st0">
	<rect id="Background" class="st1" width="600" height="600"/>
</g>
<g id="Members_00000110434034135387190340000017132189869966509700_">
	<path id="People" d="M13.2,327.2l1.4-9.1c1.4-3.9,4-16.9,5.2-28.6l4-20.9l-2.6-2.6c-4-5.2-4-7.8,0-14.3c5.2-9.1,6.6-14.3,4-32.5
		c-2.6-15.6,0-26.1,7.8-31.2c4-1.3,7.8-3.9,10.4-5.2c5.2-2.6,6.6-7.8,6.6-13c0-2.6,0-3.9-4-7.8c-2.6-2.6-5.2-3.9-5.2-3.9
		s-2.6-1.3-4-2.6c-2.6-1.3-2.6-3.9-2.6-5.2c0-1.3,0-3.9,0-6.5c-1.4-5.3,1.3-13.1,5.1-17c9.2-7.8,14.4-10.4,22.2-10.4
		c5.2,0,7.8,1.3,13,6.5c2.6,3.9,6.6,15.6,6.6,22.1c0,5.2-4,11.7-9.2,15.6c-5.2,3.9-5.2,5.2-2.6,10.4c2.6,3.9,9.2,6.5,17,9.1
		c6.6,1.3,10.4,3.9,13,9.1c1.4,2.6,2.6,5.2,2.6,5.2s14.4-7.8,18.2-10.4c2.6-1.3,1.4-1.3-1.4-5.2c-6.6-6.5-9.2-24.7-5.2-32.5
		c4-7.8,13-14.3,22.2-14.3c4,0,6.6,0,9.2,3.9c5.2,3.9,7.8,10.4,9.2,16.9c0,2.6,0,5.2,1.4,6.5s1.4,6.5-2.6,11.7
		c-2.6,5.2-4,9.1-1.4,9.1c0,0,1.4,1.3,4,2.6c1.4,1.3,6.6,5.2,11.8,7.8c5.2,3.9,10.4,7.8,11.8,9.1c10.4,10.4,17,28.6,18.2,52
		c0,14.3,0,14.3-7.8,23.5l-5.2,5.2l-1.4,11.7c-1.4,18.2-2.6,33.8-4,37.7c-1.4,2.6-2.6,3.9-5.2,5.2c-4,1.3-5.2,2.6-6.6,9.1
		c-4,10.4-4,14.3-1.4,19.5c1.4,2.6,5.2,10.4,7.8,16.9c9.2,19.5,11.8,24.7,15.6,37.7c2.6,6.5,6.6,16.9,7.8,20.9
		c2.6,7.8,2.6,9.1,1.4,10.4c-1.4,1.3-1.4,2.6,0,7.8c1.4,3.9,1.4,6.5,1.4,7.8c-1.4,1.3-22.2,7.8-30,9.1c-7.8,0-10.4-1.3-5.2-3.9
		c6.6-5.2,7.8-7.8,7.8-9.1s0-2.6,1.4-5.2c1.4-2.6,1.4-2.6,0-3.9c-2.6-2.6-5.2-6.5-7.8-14.3c-1.4-3.9-2.6-6.5-2.6-7.8
		c0,0-1.4-1.3-1.4-2.6s-4-9.1-9.2-19.5l-9.2-18.2l-1.4,2.6c-4,6.5-10.4,27.3-13,36.4c-7.8,31.2-9.2,33.8-11.8,36.4
		c-2.6,1.3-2.6,2.6-2.6,6.5c0,5.2-1.4,6.5-6.6,7.8c-2.6,0-6.6,1.3-10.4,2.6c-7.8,0-17,1.3-22.2,0c-4-1.3-1.4-3.9,6.6-9.1
		c7.8-3.9,11.8-9.1,9.2-9.1c-1.4,0-2.6,0-4-1.3c-1.4-1.3-1.4-1.3,0-7.8c2.6-6.5,5.2-16.9,6.6-26.1c0-2.6,2.6-10.4,2.6-15.6
		c1.4-5.2,2.6-13,4-15.6c2.6-10.4,4-19.5,9.2-33.8c2.6-7.8,5.2-16.9,5.2-19.5l1.4-3.9h-4c-5.2,0-5.2,0-6.6-13c0-7.8-4-36.4-4-36.4
		s-1.4-1.3-4-1.3c-7.8-1.3-9.2-3.9-10.4-14.3c0-5.2-1.4-9.1-1.4-10.4h-1.4c-1.4,0-1.4,1.3-1.4,3.9c1.4,2.6,4,26.1,5.2,44.2
		c0,6.5,1.4,13,1.4,14.3c1.4,3.9,2.6,45.6,2.6,45.6s-11.8,2.6-18.2,3.9l-4,2.6l-1.4,6.5c-1.4,7.8-4,23.5-5.2,35.1
		c-2.6,13-1.4,19.5,4,24.7c5.2,5.2,7.8,10.4,6.6,13c0,2.6-1.4,2.6-7.8,1.3h-6.6l-1.4,3.9c-1.4,6.5-6.6,11.7-11.8,11.7
		c-2.6,0-4,0-4-2.6c-1.4-3.9,0-7.8,2.6-14.3c2.6-6.5,1.4-15.6-1.4-29.9c-2.6-13-5.2-28.6-6.6-39c0-2.6-1.4-6.5-1.4-6.5
		s-4-1.3-9.2-1.3c-5.2-1.3-10.4-2.6-13-2.6l-4-3.9v-9.1c0-5.2,0-15.6,1.4-22.1l1.4-11.7L13.2,327.2z M88.8,234.8V227l-2.6,6.5
		c-1.4,3.9-2.6,7.8-2.6,9.1c-1.4,1.3,0,1.3,1.4,1.3C88.8,242.7,88.8,241.4,88.8,234.8L88.8,234.8z M429.6,479.4
		c-1.4-2.6-1.4-5.2,1.4-14.3c2.6-13,2.6-13-4-40.3c-1.4-7.8-4-16.9-4-22.1c-1.4-13-2.6-13-7.8-13c-5.2,0-13-1.3-17-2.6
		c-1.4,0-1.4,1.3-2.6,13c-1.4,7.8-1.4,22.1-2.6,32.5c-1.4,22.1-1.4,24.7-4,24.7c-1.4,0-2.6,1.3-2.6,3.9c0,2.6,0,5.2-1.4,5.2
		c-1.4,1.3-10.4,3.9-11.8,3.9c-1.4,0-17,1.3-19.6,1.3c-1.4,0-2.6,2.6-2.6,3.9c-1.4,3.9-5.2,6.5-9.2,5.2c-2.6-1.3-5.2-7.8-4-16.9
		c0-6.5,0-6.5-2.6-7.8c-4-1.3-4-3.9-1.4-5.2c2.6-1.3,2.6-1.3,0-7.8c-1.4-3.9-5.2-13-9.2-20.9c-4-7.8-7.8-19.5-10.4-26.1
		c-5.2-13-5.2-11.7-19.6-13c-17-1.3-14.4-2.6-18.2,9.1c-1.4,5.2-5.2,16.9-7.8,27.3c-6.6,20.9-7.8,26.1-5.2,33.8
		c1.4,5.2,1.4,6.5,0,10.4c-2.6,6.5-5.2,6.5-5.2,2.6c0-1.3,0-2.6-1.4-2.6c-1.4,0-2.6,1.3-6.6,3.9c-2.6,2.6-7.8,5.2-9.2,5.2
		c-5.2,1.3-13,1.3-13,0s2.6-3.9,6.6-7.8c7.8-7.8,11.8-13,14.4-26.1c2.6-10.4,7.8-59.8,6.6-61.1c0,0-4-1.3-9.2-3.9
		c-11.8-3.9-11.8-3.9-9.2-14.3c6.6-24.7,7.8-31.2,7.8-33.8c0-1.3-1.4-2.6-5.2-2.6s-5.2-1.3-6.6-2.6c0-1.3,2.6-15.6,5.2-23.5
		c0-1.3,1.4-5.2,2.6-7.8c1.4-3.9,2.6-5.2,4-6.5c1.4-1.3,4-3.9,5.2-7.8c1.4-3.9,2.6-6.5,2.6-7.8c0-1.3-4-1.3-7.8,1.3
		c-4,2.6-9.2,1.3-13-1.3c-1.4-1.3-4-2.6-4-3.9c0,0,1.4-1.3,4-2.6c4-1.3,4-2.6,2.6-2.6c-2.6-1.3-2.6-2.6,0-2.6c1.4,0,2.6-1.3,4-2.6
		c4-2.6,6.6-2.6,14.4,0l6.6,2.6l1.4-3.9c0-2.6,1.4-7.8,2.6-13c2.6-15.6,6.6-29.9,10.4-35.1c2.6-3.9,2.6-6.5,2.6-10.4
		c0-4,0-5.2,4-9.1c5.2-5.2,5.2-7.8,1.4-7.8c-1.4,0-4-1.3-5.2-1.3c-1.4,0-4-1.3-5.2-1.3c-2.6,0-4-1.3-6.6-2.6
		c-2.6-2.6-2.6-2.6-2.6-11.7c0-11.7,2.6-19.5,7.8-23.5c5.2-5.2,7.8-7.8,14.4-7.8c7.8-1.3,13,1.3,18.2,9.1
		c7.8,11.7,7.8,24.7,2.6,32.5c-4,5.2-4,7.8-1.4,7.8c4,0,6.6,1.3,6.6,5.2c0,2.6,1.4,2.6,5.2,3.9c7.8,2.6,11.8,3.9,11.8,5.2
		c2.6,2.6,7.8,14.3,10.4,24.7c1.4,5.2,4,10.4,4,10.4s9.2-16.9,11.8-23.5c1.4-2.6,4-10.4,5.2-15.6c1.4-5.2,4-11.7,5.2-11.7
		c4-2.6,2.6-5.2-2.6-6.5c-4,0-5.2-1.3-9.2-6.5c-5.2-6.5-6.6-10.4-7.8-22.1c0-7.8,0-9.1,1.4-13c4-6.5,9.2-10.4,17-10.4
		c9.2,0,14.4,3.9,17,13c6.6-2.6,7.8,1.3,9.2,1.3c2.6,1.3,2.6,1.3,0,15.6c-1.4,6.5,1.4,11.7,5.2,13c1.4,0,4,1.3,4,2.6
		c0,1.3,4,5.2,6.6,7.8c6.6,6.5,6.6,9.1,7.8,20.9l1.4,9.1l7.8-5.2c11.8-7.8,13-9.1,13-15.6c0-3.9,0-5.2-2.6-6.5
		c-4-2.6-11.8-9.1-11.8-11.7c0-3.9,0-5.2,0-10.4c-1.4-9.1,4-16.9,14.4-23.5c7.8-3.9,15.6-3.9,22.2,0c2.6,1.3,5.2,5.2,6.6,7.8
		c2.6,5.2,5.2,14.3,5.2,19.5c0,3.9-4,10.4-7.8,11.7c-5.2,2.6-7.8,5.2-6.6,9.1c1.4,5.2,4,7.8,11.8,9.1c13,2.6,13,2.6,17,7.8l2.6,3.9
		l4-7.8c5.2-10.4,6.6-11.7,11.8-14.3c2.6-1.3,5.2-2.6,6.6-3.9c0,0,0,0-2.6-2.6c-4-2.6-5.2-9.1-5.2-20.9s2.6-16.9,7.8-20.9
		c4-2.6,13-5.2,18.2-3.9c7.8,1.3,14.4,9.1,14.4,18.2c0,2.6,0,3.9,1.4,5.2c2.6,1.3,0,10.4-2.6,14.3c-5.2,6.5-4,7.8,9.2,13
		c13,6.5,22.2,13,24.8,18.2c7.8,13,15.6,55.9,11.8,65.1c-1.4,1.3-4,5.2-7.8,7.8l-6.6,5.2l-1.4,23.5c-1.4,13-1.4,24.7-2.6,26.1
		c0,2.6-2.6,3.9-5.2,5.2c-5.2,2.6-5.2,2.6-7.8,10.4l-2.6,7.8l4,6.5c1.4,3.9,7.8,15.6,11.8,26.1c5.2,10.4,10.4,22.1,11.8,27.3
		c4,11.7,10.4,36.4,10.4,40.3c0,2.6,0,5.2,0,7.8c1.4,3.9,1.4,3.9-4,5.2c-2.6,1.3-7.8,2.6-13,3.9c-9.2,2.6-22.2,3.9-23.5,2.6
		c-1.4-1.3,0-2.6,7.8-6.5c5.2-3.9,5.2-3.9,5.2-7.8c0-2.6,0-3.9,1.4-3.9l1.4-1.3c0,0,0-1.3-1.4-1.3c-1.4,0-2.6-1.3-4-2.6
		c-1.4-1.3-2.6-3.9-4-9.1c0-3.9-2.6-10.4-7.8-20.9c-11.8-23.5-15.6-29.9-17-29.9s-13,27.3-13,31.2c0,1.3,0,3.9-1.4,5.2
		c0,1.3-2.6,9.1-4,18.2c-2.6,18.2-4,20.9-6.6,20.9c-1.4,0-2.6,2.6-2.6,7.8c0,2.6-1.4,3.9-5.2,3.9c-2.6,0-9.2,2.6-13,3.9
		c-10.4,2.6-20.8,3.9-20.8,1.3c0-1.3,4-5.2,9.2-7.8c9.2-6.5,11.8-9.1,6.6-9.1c-1.4,0-2.6-1.3-1.4-2.6c2.6-9.1,10.4-49.4,11.8-66.3
		c0-2.6,2.6-9.1,5.2-16.9c6.6-18.2,10.4-36.4,9.2-36.4c0,0-2.6,0-4,0c-1.4,0-2.6,0-2.6,0c-1.4-1.3-4-19.5-6.6-33.8
		s-2.6-15.6-6.6-16.9c-5.2-1.3-6.6-3.9-6.6-6.5c0-1.3,0-2.6,0-3.9c0,0-4,1.3-6.6,2.6c-5.2,2.6-6.6,2.6-6.6,5.2
		c0,1.3,1.4,6.5,2.6,10.4c1.4,5.2,2.6,11.7,4,14.3c1.4,6.5,5.2,46.8,5.2,66.3v10.4l-4,2.6c-2.6,1.3-7.8,2.6-11.8,3.9l-7.8,2.6
		l-2.6,13c-5.2,24.7-6.6,37.7-5.2,43c0,2.6,2.6,6.5,5.2,9.1c5.2,5.2,6.6,9.1,5.2,10.4c0,0-4,1.3-6.6,1.3c-5.2,0-5.2,0-6.6,5.2
		c-1.4,6.5-4,10.4-6.6,11.7C433.6,483.3,430.9,483.3,429.6,479.4L429.6,479.4z M357.8,459.9l2.6-2.6h-4c-4,0-4,0-4,2.6
		C352.6,462.5,353.9,462.5,357.8,459.9L357.8,459.9z M351.3,443c1.4-1.3,1.4-2.6,1.4-3.9s2.6-3.9,4-6.5l4-3.9l-4-2.6
		c-4-3.9-4-2.6-5.2-27.3c0-7.8-1.4-19.5-2.6-23.5c-1.4-5.2-2.6-15.6-2.6-24.7s-1.4-19.5-1.4-26.1l-1.4-10.4l-5.2-2.6
		c-6.6-2.6-7.8-5.2-7.8-13c0-3.9,0-6.5-1.4-6.5c0,0-2.6,1.3-5.2,3.9c-4,3.9-4,3.9-4,10.4c0,3.9,1.4,13,1.4,19.5
		c1.4,14.3,2.6,27.3,6.6,40.3c1.4,5.2,2.6,11.7,2.6,15.6c0,3.9,1.4,9.1,1.4,10.4c2.6,10.4,11.8,49.4,11.8,53.3
		C347.4,446.9,348.6,445.6,351.3,443L351.3,443z M394.4,359.8c0-3.9,1.4-9.1,1.4-11.7c2.6-13,5.2-31.2,5.2-32.5c0,0-4,0-6.6,0
		l-6.6,1.3v5.2c0,2.6,0,7.8,1.4,10.4c0,2.6,1.4,11.7,2.6,19.5c1.4,7.8,1.4,14.3,2.6,14.3C393,366.2,394.4,362.4,394.4,359.8
		L394.4,359.8z M406.1,293.4c2.6-10.4,2.6-15.6,0-16.9c-2.6-2.6-2.6-6.5,0-15.6c2.6-6.5,4-9.1,4-16.9c0-13-1.4-14.3-4-5.2
		c-1.4,5.2-4,11.7-5.2,16.9c-4,10.4-4,20.9-2.6,35.1c2.6,13,2.6,15.6,4,13C404.8,303.8,406.1,298.6,406.1,293.4L406.1,293.4z
		 M258.6,270c-1.4-1.3-2.6,2.6-4,9.1c-1.4,3.9-1.4,5.2,0,6.5C256,285.6,259.9,271.3,258.6,270L258.6,270z M325.2,271.3
		c2.6-3.9,5.2-9.1,6.6-11.7c2.6-5.2,2.6-5.2,0-11.7c-2.6-7.8-2.6-7.8-4-5.2c0,1.3-2.6,6.5-5.2,11.7c-2.6,6.5-4,10.4-4,15.6
		c0,3.9,0,6.5,1.4,6.5C321.2,276.4,322.6,273.8,325.2,271.3L325.2,271.3z M472.7,253.1c1.4-1.3,1.4-2.6,0-7.8c0-3.9-1.4-5.2-1.4-5.2
		s-1.4,3.9-2.6,7.8l-2.6,7.8l2.6-1.3C470.1,254.3,471.4,253.1,472.7,253.1L472.7,253.1z"/>
</g>
</svg>
