<?xml version="1.0" encoding="utf-8"?>
<!-- Generator: Adobe Illustrator 26.0.1, SVG Export Plug-In . SVG Version: 6.00 Build 0)  -->
<svg version="1.1" id="Pictires" xmlns="http://www.w3.org/2000/svg" xmlns:xlink="http://www.w3.org/1999/xlink" x="0px" y="0px"
	 width="480px" height="480px" viewBox="0 0 480 480" style="enable-background:new 0 0 480 480;" xml:space="preserve">
<style type="text/css">
	.st0{opacity:0;fill:none;}
	.st1{fill:#FFFFFF;}
	.st2{display:none;}
	.st3{display:inline;}
</style>
<rect id="Background" x="0.6" class="st0" width="478.6" height="478.6"/>
<g id="Sillowette-White_00000119807776632742969030000010004194937730725302_">
	<path id="Sillowette_00000126289794016721436950000016296161489654223506_" class="st1" d="M469.3,0H117.2c-5.5,0-10,4.5-10,10
		v38.4L8.7,68.1c-5.4,1.1-8.9,6.3-7.9,11.7l74.4,392.1c0.5,2.7,2.1,5,4.3,6.5c1.6,1.1,3.6,1.7,5.5,1.7c0.7,0,1.4-0.1,2.1-0.2
		l275.6-60.6h106.5c5.5,0,10-4.5,10-10V10C479.3,4.5,474.9,0,469.3,0z M93,458L22.3,85.8l84.9-17v340.3c0,5.5,4.5,10,10,10h152.6
		L93,458z M459.4,399.1h-97.7h-0.1H127.2v-68.8l108.9-108.9l70.2,79.1c1.8,2.1,4.4,3.3,7.2,3.4c2.8,0.1,5.5-1,7.4-2.9l96.5-96.6
		l42,42.8V399.1z M459.4,218.6h-0.1l-34.7-35.4c-1.9-1.9-4.4-3-7.1-3c-2.6,0-5.2,1-7.1,2.9l-96.2,96.2L244,200.2
		c-1.8-2.1-4.4-3.3-7.2-3.4c-2.8-0.1-5.4,1-7.4,2.9L127.2,302.1V20h332.2L459.4,218.6L459.4,218.6z"/>
	<path id="Sun_00000111168745053036754690000001297476711406461355_" class="st1" d="M316.2,60.9c-39.5,0-71.6,32.1-71.6,71.6
		s32.1,71.6,71.6,71.6s71.6-32.1,71.6-71.6S355.7,60.9,316.2,60.9z M316.2,184.1c-28.5,0-51.6-23.1-51.6-51.6s23.1-51.6,51.6-51.6
		s51.6,23.1,51.6,51.6C367.8,161,344.7,184.1,316.2,184.1z"/>
</g>
<g id="Sillowette-Black" class="st2">
	<path id="Sillowette" class="st3" d="M469.3,0H117.2c-5.5,0-10,4.5-10,10v38.4L8.7,68.1c-5.4,1.1-8.9,6.3-7.9,11.7l74.4,392.1
		c0.5,2.7,2.1,5,4.3,6.5c1.6,1.1,3.6,1.7,5.5,1.7c0.7,0,1.4-0.1,2.1-0.2l275.6-60.6h106.5c5.5,0,10-4.5,10-10V10
		C479.3,4.5,474.9,0,469.3,0z M93,458L22.3,85.8l84.9-17v340.3c0,5.5,4.5,10,10,10h152.6L93,458z M459.4,399.1h-97.7h-0.1H127.2
		v-68.8l108.9-108.9l70.2,79.1c1.8,2.1,4.4,3.3,7.2,3.4c2.8,0.1,5.5-1,7.4-2.9l96.5-96.6l42,42.8V399.1z M459.4,218.6h-0.1
		l-34.7-35.4c-1.9-1.9-4.4-3-7.1-3c-2.6,0-5.2,1-7.1,2.9l-96.2,96.2L244,200.2c-1.8-2.1-4.4-3.3-7.2-3.4c-2.8-0.1-5.4,1-7.4,2.9
		L127.2,302.1V20h332.2L459.4,218.6L459.4,218.6z"/>
	<path id="Sun" class="st3" d="M316.2,60.9c-39.5,0-71.6,32.1-71.6,71.6s32.1,71.6,71.6,71.6s71.6-32.1,71.6-71.6
		S355.7,60.9,316.2,60.9z M316.2,184.1c-28.5,0-51.6-23.1-51.6-51.6s23.1-51.6,51.6-51.6s51.6,23.1,51.6,51.6
		C367.8,161,344.7,184.1,316.2,184.1z"/>
</g>
</svg>
