<?xml version="1.0" encoding="utf-8"?>
<!-- Generator: Adobe Illustrator 26.0.1, SVG Export Plug-In . SVG Version: 6.00 Build 0)  -->
<svg version="1.1" id="Layer_1" xmlns="http://www.w3.org/2000/svg" xmlns:xlink="http://www.w3.org/1999/xlink" x="0px" y="0px"
	 width="598.1px" height="599px" viewBox="0 0 598.1 599" style="enable-background:new 0 0 598.1 599;" xml:space="preserve">
<style type="text/css">
	.st0{display:none;fill:#FF6699;}
	.st1{fill:#FFFFFF;}
</style>
<path class="st0" d="M0,0v599h600V0H0z"/>
<path d="M587.5,0H146.7c-6.9,0-12.5,5.6-12.5,12.5v48L10.9,85.1C4.1,86.5-0.3,93,1,99.7l93.1,490c0.6,3.4,2.6,6.2,5.4,8.1
	c2,1.4,4.5,2.1,6.9,2.1c0.9,0,1.8-0.1,2.6-0.2L454,524h133.3c6.9,0,12.5-5.6,12.5-12.5v-499C600,5.6,594.5,0,587.5,0z M575,273.2
	L531.5,229c-2.4-2.4-5.5-3.7-8.9-3.7c-3.3,0-6.5,1.2-8.9,3.6L393.3,349.1l-87.9-98.9c-2.3-2.6-5.5-4.1-9-4.2
	c-3.5-0.1-6.8,1.2-9.3,3.6l-127.9,128V25h415.9v248.2H575z"/>
<path id="Sky" class="st1" d="M159.2,377.5l128.1-127.8c2.4-2.4,5.8-3.7,9.3-3.6c3.5,0.1,6.8,1.6,9,4.2l87.9,98.9L513.9,229
	c2.4-2.4,5.6-3.7,8.9-3.6c3.4,0,6.5,1.4,8.9,3.7l43.4,44.2V25H159.2V377.5z"/>
<path id="Page_2" class="st1" d="M134.2,511.3V86L27.9,107.2l88.5,465.2l221.3-48.6h-191C139.8,523.8,134.2,518.1,134.2,511.3z"/>
<path id="Mountains" class="st1" d="M522.5,255.4L401.7,376.2c-2.4,2.4-5.8,3.7-9.3,3.6c-3.5-0.1-6.8-1.6-9-4.2l-87.9-98.9
	L159.2,412.8v86h293.4h0.1l0,0h122.3l0,0V308.9L522.5,255.4z"/>
<g id="Sun_00000075144489817258163240000005073331404152989829_">
	<ellipse id="Sun_Sillowette" cx="395.8" cy="165.6" rx="89.6" ry="89.5"/>
	<ellipse id="Sun" class="st1" cx="395.8" cy="165.6" rx="64.6" ry="64.5"/>
</g>
</svg>
