<?xml version="1.0" encoding="utf-8"?>
<!-- Generator: Adobe Illustrator 26.5.0, SVG Export Plug-In . SVG Version: 6.00 Build 0)  -->
<svg version="1.1" id="Staff" xmlns="http://www.w3.org/2000/svg" xmlns:xlink="http://www.w3.org/1999/xlink" x="0px" y="0px"
	 viewBox="0 0 600 600" style="enable-background:new 0 0 600 600;" xml:space="preserve">
<style type="text/css">
	.st0{fill:none;}
	.st1{fill:#FFFFFF;}
</style>
<rect id="Staff-Background" class="st0" width="600" height="600"/>
<g id="Staff-Body">
	<path id="Staff-People" class="st1" d="M332.7,584.4c-2.2-4.1-2.2-8.2,2.2-22.7c4.2-20.6,4.2-20.6-6.4-63.9
		c-2.2-12.4-6.4-26.8-6.4-35c-2.2-20.6-4.2-20.6-12.5-20.6s-20.8-2.1-27.2-4.1c-2.2,0-2.2,2.1-4.2,20.6c-2.2,12.4-2.2,35-4.2,51.5
		c-2.2,35-2.2,39.2-6.4,39.2c-2.2,0-4.2,2.1-4.2,6.2s0,8.2-2.2,8.2c-2.2,2.1-16.6,6.2-18.9,6.2S215.2,572,211,572
		c-2.2,0-4.2,4.1-4.2,6.2c-2.2,6.2-8.3,10.3-14.7,8.2c-4.2-2.1-8.3-12.4-6.4-26.8c0-10.3,0-10.3-4.2-12.4c-6.4-2.1-6.4-6.2-2.2-8.2
		s4.2-2.1,0-12.4c-2.2-6.2-8.3-20.6-14.7-33.1c-6.4-12.4-12.5-30.9-16.6-41.4c-8.3-20.6-8.3-18.6-31.4-20.6
		c-27.2-2.1-23-4.1-29.1,14.4c-2.2,8.2-8.3,26.8-12.5,43.3c-10.6,33.1-12.5,41.4-8.3,53.6c2.2,8.2,2.2,10.3,0,16.5
		c-4.2,10.3-8.3,10.3-8.3,4.1c0-2.1,0-4.1-2.2-4.1s-4.2,2.1-10.6,6.2c-4.2,4.1-12.5,8.2-14.7,8.2c-8.3,2.1-20.8,2.1-20.8,0
		c0-2.1,4.2-6.2,10.6-12.4C33,549,39.4,540.8,43.6,520c4.2-16.5,12.5-94.8,10.6-96.9c0,0-6.4-2.1-14.7-6.2
		c-18.9-6.2-18.9-6.2-14.7-22.7c10.6-39.2,12.5-49.5,12.5-53.6c0-2.1-2.2-4.1-8.3-4.1s-8.3-2.1-10.6-4.1c0-2.1,4.2-24.7,8.3-37.3
		c0-2.1,2.2-8.2,4.2-12.4c2.2-6.2,4.2-8.2,6.4-10.3c2.2-2.1,6.4-6.2,8.3-12.4c2.2-6.2,4.2-10.3,4.2-12.4s-6.4-2.1-12.5,2.1
		c-6.4,4.1-14.7,2.1-20.8-2.1c-2.2-2.1-6.4-4.1-6.4-6.2c0,0,2.2-2.1,6.4-4.1c6.4-2.1,6.4-4.1,4.2-4.1c-4.2-2.1-4.2-4.1,0-4.1
		c2.2,0,4.2-2.1,6.4-4.1c6.4-4.1,10.6-4.1,23,0l10.6,4.1l2.2-6.2c0-4.1,2.2-12.4,4.2-20.6c4.2-24.7,10.6-47.4,16.6-55.7
		c4.2-6.2,4.2-10.3,4.2-16.5c0-6.3,0-8.2,6.4-14.4c8.3-8.2,8.3-12.4,2.2-12.4c-2.2,0-6.4-2.1-8.3-2.1c-2.2,0-6.4-2.1-8.3-2.1
		c-4.2,0-6.4-2.1-10.6-4.1c-4.2-4.1-4.2-4.1-4.2-18.6c0-18.6,4.2-30.9,12.5-37.3c8.3-8.2,12.5-12.4,23-12.4
		c12.5-2.1,20.8,2.1,29.1,14.4c12.5,18.6,12.5,39.2,4.2,51.5c-6.4,8.2-6.4,12.4-2.2,12.4c6.4,0,10.6,2.1,10.6,8.2
		c0,4.1,2.2,4.1,8.3,6.2c12.5,4.1,18.9,6.2,18.9,8.2c4.2,4.1,12.5,22.7,16.6,39.2c2.2,8.2,6.4,16.5,6.4,16.5s9.8-29.3,14-39.8
		c2.1-6.4,6.5-15.8,10-22.9c4.4-9.6,9.6-17.9,11.5-17.9c6.4-4.1,4.2-8.2-4.2-10.3c-6.4,0-8.3-2.1-14.7-10.3
		c-8.3-10.3-10.6-16.5-12.5-35c0-12.4,0-14.4,2.2-20.6c0.5-0.9-0.2-1.5,0.3-2.3c6.2-8.8,15.4-14.2,26.9-14.2
		c14.7,0,25.6,5.6,29.8,20c9.9,22.4,5.3,38.3,10.7,37.4c0.3,10.7,3.6,9,9.8,10.6c2.2,0,5.3,2.2,6.4,4.1c1,1.8,6.4,8.2,10.6,12.4
		c10.6,10.3,10.6,14.4,12.5,33.1l2.2,14.4l12.5-8.2c18.9-12.4,20.8-14.4,20.8-24.7c0-6.2,0-8.2-4.2-10.3
		c-6.4-4.1-15.3-14.6-16.5-18.6c-2-6.5-2.4-8.2-2.4-16.5c0.4-14.7,6.4-26.8,23-37.3c12.5-6.2,23.2-7.2,33.7-1
		c4.2,2.1,10.1,9.2,12.4,13.3c4.2,8.2,8.7,22.4,6.8,30.4c-1.4,5.7-5.3,13.8-12.7,20c-8.3,4.1-10.7,7.3-8.7,13.5
		c2.2,8.2,6.4,12.4,18.9,14.4c20.8,4.1,20.8,4.1,27.2,12.4l4.2,6.2l6.4-12.4c8.3-16.5,10.6-18.6,18.9-22.7c4.2-2.1,8.3-4.1,10.6-6.2
		c0,0,0,0-4.2-4.1c-6.4-4.1-8.3-14.4-8.3-33.1s4.2-26.8,12.5-33.1c6.4-4.1,20.8-8.2,29.1-6.2c12.5,2.1,23,14.4,23,28.9
		c0,4.1,0,6.2,2.2,8.2c4.2,2.1,0,16.5-4.2,22.7c-8.3,10.3-6.4,12.4,14.7,20.6c20.8,10.3,35.5,20.6,39.7,28.9
		c12.5,20.6,25,88.7,18.9,103.2c-2.2,2.1-6.4,8.2-12.5,12.4l-10.6,8.2l-2.2,37.3c-2.2,20.6-2.2,39.2-4.2,41.4c0,4.1-4.2,6.2-8.3,8.2
		c-8.3,4.1-8.3,4.1-12.5,16.5l-4.2,12.4l6.4,10.3c2.2,6.2,12.5,24.7,18.9,41.4c8.3,16.5,16.6,35,18.9,43.3
		c6.4,18.6,16.6,57.7,16.6,63.9c0,4.1,0,8.2,0,12.4c2.2,6.2,2.2,6.2-6.4,8.2c-4.2,2.1-12.5,4.1-20.8,6.2
		c-14.7,4.1-35.5,6.2-37.6,4.1c-2.2-2.1,0-4.1,12.5-10.3c8.3-6.2,8.3-6.2,8.3-12.4c0-4.1,0-6.2,2.2-6.2l2.2-2.1c0,0,0-2.1-2.2-2.1
		s-4.2-2.1-6.4-4.1c-2.2-2.1-4.2-6.2-6.4-14.4c0-6.2-4.2-16.5-12.5-33.1c-18.9-37.3-25-47.4-27.2-47.4s-20.8,43.3-20.8,49.5
		c0,2.1,0,6.2-2.2,8.2c0,2.1-4.2,14.4-6.4,28.9c-4.2,28.9-6.4,33.1-10.6,33.1c-2.2,0-4.2,4.1-4.2,12.4c0,4.1-2.2,6.2-8.3,6.2
		c-4.2,0-14.7,4.1-20.8,6.2c-16.6,4.1-33.3,6.2-33.3,2.1c0-2.1,6.4-8.2,14.7-12.4c14.7-10.3,18.9-14.4,10.6-14.4
		c-2.2,0-4.2-2.1-2.2-4.1c4.2-14.4,16.6-78.3,18.9-105.1c0-4.1,4.2-14.4,8.3-26.8c10.6-28.9,16.6-57.7,14.7-57.7c0,0-4.2,0-6.4,0
		s-4.2,0-4.2,0c-2.2-2.1-6.4-30.9-10.6-53.6c-4.2-22.7-4.2-24.7-10.6-26.8c-8.3-2.1-10.6-6.2-10.6-10.3c0-2.1,0-4.1,0-6.2
		c0,0-6.4,2.1-10.6,4.1c-8.3,4.1-10.6,4.1-10.6,8.2c0,2.1,2.2,10.3,4.2,16.5c2.2,8.2,4.2,18.6,6.4,22.7c2.2,10.3,8.3,74.2,8.3,105.1
		V427l-6.4,4.1c-4.2,2.1-12.5,4.1-18.9,6.2l-12.5,4.1l-4.2,20.6c-8.3,39.2-10.6,59.8-8.3,68.2c0,4.1,4.2,10.3,8.3,14.4
		c8.3,8.2,10.6,14.4,8.3,16.5c0,0-6.4,2.1-10.6,2.1c-8.3,0-8.3,0-10.6,8.2c-2.2,10.3-6.4,16.5-10.6,18.6
		C339.1,590.5,334.7,590.5,332.7,584.4L332.7,584.4z M217.7,553.4l4.2-4.1h-6.4c-6.4,0-6.4,0-6.4,4.1
		C209.4,557.6,211.5,557.6,217.7,553.4L217.7,553.4z M207.3,526.6c2.2-2.1,2.2-4.1,2.2-6.2s4.2-6.2,6.4-10.3l6.4-6.2l-6.4-4.1
		c-6.4-6.2-6.4-4.1-8.3-43.3c0-12.4-2.2-30.9-4.2-37.3c-2.2-8.2-4.2-24.7-4.2-39.2s-2.2-30.9-2.2-41.4l-2.2-16.5l-8.3-4.1
		c-10.6-4.1-12.5-8.2-12.5-20.6c0-6.2,0-10.3-2.2-10.3c0,0-4.2,2.1-8.3,6.2c-6.4,6.2-6.4,6.2-6.4,16.5c0,6.2,2.2,20.6,2.2,30.9
		c2.2,22.7,4.2,43.3,10.6,63.9c2.2,8.2,4.2,18.6,4.2,24.7s2.2,14.4,2.2,16.5c4.2,16.5,18.9,78.3,18.9,84.5
		C201.1,532.8,203,530.8,207.3,526.6L207.3,526.6z M276.3,394.7c0-6.2,2.2-14.4,2.2-18.6c4.2-20.6,8.3-49.5,8.3-51.5
		c0,0-6.4,0-10.6,0l-10.6,2.1v8.2c0,4.1,0,12.4,2.2,16.5c0,4.1,2.2,18.6,4.2,30.9c2.2,12.4,2.2,22.7,4.2,22.7
		C274.1,404.8,276.3,398.8,276.3,394.7L276.3,394.7z M295,289.4c4.2-16.5,4.2-24.7,0-26.8c-4.2-4.1-4.2-10.3,0-24.7
		c4.2-10.3,6.4-14.4,6.4-26.8c0-20.6-2.2-22.7-6.4-8.2c-2.2,8.2-6.4,18.6-8.3,26.8c-6.4,16.5-6.4,33.1-4.2,55.7
		c4.2,20.6,4.2,24.7,6.4,20.6C293,305.9,295,297.6,295,289.4L295,289.4z M59,252.3c-2.2-2.1-4.2,4.1-6.4,14.4
		c-2.2,6.2-2.2,8.2,0,10.3C54.8,277,61.1,254.3,59,252.3L59,252.3z M165.6,254.3c4.2-6.2,8.3-14.4,10.6-18.6c4.2-8.2,4.2-8.2,0-18.6
		c-4.2-12.4-4.2-12.4-6.4-8.2c0,2.1-4.2,10.3-8.3,18.6c-4.2,10.3-6.4,16.5-6.4,24.7c0,6.2,0,10.3,2.2,10.3
		C159.2,262.4,161.4,258.3,165.6,254.3L165.6,254.3z M401.6,225.5c2.2-2.1,2.2-4.1,0-12.4c0-6.2-2.2-8.2-2.2-8.2s-2.2,6.2-4.2,12.4
		l-4.2,12.4l4.2-2.1C397.5,227.4,399.6,225.5,401.6,225.5L401.6,225.5z"/>
</g>
</svg>
