<?xml version="1.0" encoding="utf-8"?>
<!-- Generator: Adobe Illustrator 26.0.1, SVG Export Plug-In . SVG Version: 6.00 Build 0)  -->
<svg version="1.1" id="Videos_Layer" xmlns="http://www.w3.org/2000/svg" xmlns:xlink="http://www.w3.org/1999/xlink" x="0px"
	 y="0px" width="599px" height="600px" viewBox="0 0 599 600" style="enable-background:new 0 0 599 600;" xml:space="preserve">
<style type="text/css">
	.st0{display:none;fill:#FF6699;stroke:#000000;stroke-miterlimit:10;}
	.st1{fill:#FFFFFF;}
	.st2{fill:#222220;}
</style>
<rect id="Background" x="0" class="st0" width="600" height="599.1"/>
<g id="Videos">
	<path id="Sillowette" d="M586.6,0H145.9c-6.9,0-12.5,5.6-12.5,12.5v48L10.1,85.1C3.3,86.5-1,93,0.2,99.7l93.1,490
		c0.6,3.4,2.6,6.2,5.4,8.1c2,1.4,4.5,2.1,6.9,2.1c0.9,0,1.8-0.1,2.6-0.2L453.2,524h133.3c6.9,0,12.5-5.6,12.5-12.5v-499
		C599.1,5.6,593.6,0,586.6,0z"/>
	<path id="Page_2" class="st1" d="M133.4,511.4V86L27.1,107.2l88.5,465.2l221.3-48.5h-191C139,523.9,133.4,518.3,133.4,511.4z"/>
	<g id="Film_00000025405690382120828250000010675251576070601872_">
		<rect id="Film" x="244.5" y="18.7" class="st1" width="237.8" height="482.4"/>
		<g id="Perforations">
			<g id="Left_Perforations">
				<rect id="Left_Track" x="159.4" y="18.7" class="st1" width="59.4" height="482.4"/>
				<path class="st2" d="M188.9,75.1c3.6,0,7.1-1.6,9.8-4.5c2.5-2.9,4-6.9,4-11s-1.5-8.1-4-11c-2.5-2.9-6.1-4.5-9.8-4.5
					c-3.6,0-7.1,1.6-9.8,4.5c-2.5,2.9-4,6.9-4,11s1.5,8.1,4,11C181.8,73.5,185.3,75.1,188.9,75.1z"/>
				<path class="st2" d="M188.9,132.6c3.6,0,7.1-1.6,9.8-4.5c2.5-2.9,4-6.9,4-11s-1.5-8.1-4-11c-2.6-2.7-6.1-4.5-9.8-4.5
					c-3.6,0-7.1,1.6-9.8,4.5c-2.5,2.9-4,6.9-4,11s1.5,8.1,4,11S185.3,132.6,188.9,132.6z"/>
				<path class="st2" d="M188.9,190.2c3.6,0,7.1-1.6,9.8-4.5c2.5-2.9,4-6.9,4-11s-1.5-8.1-4-11c-2.6-2.9-6.1-4.5-9.8-4.5
					c-3.6,0-7.1,1.6-9.8,4.5c-2.5,2.9-4,6.9-4,11s1.5,8.1,4,11S185.3,190.2,188.9,190.2z"/>
				<path class="st2" d="M188.9,247.8c3.6,0,7.1-1.6,9.8-4.5c2.5-2.9,4-6.9,4-11s-1.5-8.1-4-11c-2.6-2.9-6.1-4.5-9.8-4.5
					c-3.6,0-7.1,1.6-9.8,4.5c-2.5,2.9-4,6.9-4,11s1.5,8.1,4,11S185.3,247.8,188.9,247.8z"/>
				<path class="st2" d="M188.9,305.4c3.6,0,7.1-1.6,9.8-4.5c2.5-2.9,4-6.9,4-11s-1.5-8.1-4-11c-2.6-2.9-6.1-4.5-9.8-4.5
					c-3.6,0-7.1,1.6-9.8,4.5c-2.5,2.9-4,6.9-4,11s1.5,8.1,4,11S185.3,305.4,188.9,305.4z"/>
				<path class="st2" d="M188.9,362.9c3.6,0,7.1-1.6,9.8-4.5c2.5-2.9,4-6.9,4-11s-1.5-8.1-4-11c-2.6-2.9-6.1-4.5-9.8-4.5
					c-3.6,0-7.1,1.6-9.8,4.5c-2.5,2.9-4,6.9-4,11s1.5,8.1,4,11C181.7,361.3,185.3,362.9,188.9,362.9z"/>
				<path class="st2" d="M188.9,420.5c3.6,0,7.1-1.6,9.8-4.5c2.5-2.9,4-6.9,4-11s-1.5-8.1-4-11c-2.6-2.9-6.1-4.5-9.8-4.5
					c-3.6,0-7.1,1.6-9.8,4.5c-2.5,2.9-4,6.9-4,11s1.5,8.1,4,11C181.7,418.9,185.3,420.5,188.9,420.5z"/>
				<path class="st2" d="M188.9,478.2c3.6,0,7.1-1.6,9.8-4.5c2.5-2.9,4-6.9,4-11s-1.5-8.1-4-11c-2.6-2.9-6.1-4.5-9.8-4.5
					c-3.6,0-7.1,1.6-9.8,4.5c-2.5,2.9-4,6.9-4,11s1.5,8.1,4,11S185.3,478.2,188.9,478.2z"/>
			</g>
			<g id="Right_Perforations">
				<rect id="Right_Track" x="506.7" y="18.7" class="st1" width="68.2" height="482.4"/>
				<path class="st2" d="M536.9,75.1c3.6,0,7.1-1.6,9.8-4.5c2.5-2.9,4-6.9,4-11s-1.5-8.1-4-11c-2.5-2.9-6.1-4.5-9.8-4.5
					c-3.6,0-7.1,1.6-9.8,4.5c-2.5,2.9-4,6.9-4,11s1.5,8.1,4,11C529.8,73.5,533.4,75.1,536.9,75.1z"/>
				<path class="st2" d="M536.9,132.7c3.6,0,7.1-1.6,9.8-4.5c2.5-2.9,4-6.9,4-11s-1.5-8.1-4-11c-2.5-2.9-6.1-4.5-9.8-4.5
					c-3.6,0-7.1,1.6-9.8,4.5c-2.5,2.9-4,6.9-4,11s1.5,8.1,4,11C529.8,131.1,533.4,132.7,536.9,132.7z"/>
				<path class="st2" d="M536.9,190.2c3.6,0,7.1-1.6,9.8-4.5c2.5-2.9,4-6.9,4-11s-1.5-8.1-4-11c-2.5-2.9-6.1-4.5-9.8-4.5
					c-3.6,0-7.1,1.6-9.8,4.5c-2.5,2.9-4,6.9-4,11s1.5,8.1,4,11C529.8,188.6,533.4,190.2,536.9,190.2z"/>
				<path class="st2" d="M536.9,247.8c3.6,0,7.1-1.6,9.8-4.5c2.5-2.9,4-6.9,4-11s-1.5-8.1-4-11c-2.5-2.9-6.1-4.5-9.8-4.5
					c-3.6,0-7.1,1.6-9.8,4.5c-2.5,2.9-4,6.9-4,11s1.5,8.1,4,11C529.8,246.2,533.4,247.8,536.9,247.8z"/>
				<path class="st2" d="M536.9,305.4c3.6,0,7.1-1.6,9.8-4.5c2.5-2.9,4-6.9,4-11s-1.5-8.1-4-11c-2.5-2.9-6.1-4.5-9.8-4.5
					c-3.6,0-7.1,1.6-9.8,4.5c-2.5,2.9-4,6.9-4,11s1.5,8.1,4,11C529.8,303.7,533.4,305.4,536.9,305.4z"/>
				<path class="st2" d="M536.9,362.9c3.6,0,7.1-1.6,9.8-4.5c2.5-2.9,4-6.9,4-11s-1.5-8.1-4-11c-2.5-2.9-6.1-4.5-9.8-4.5
					c-3.6,0-7.1,1.6-9.8,4.5c-2.5,2.9-4,6.9-4,11s1.5,8.1,4,11C529.8,361.3,533.4,362.9,536.9,362.9z"/>
				<path class="st2" d="M536.9,420.5c3.6,0,7.1-1.6,9.8-4.5c2.5-2.9,4-6.9,4-11s-1.5-8.1-4-11c-2.5-2.9-6.1-4.5-9.8-4.5
					c-3.6,0-7.1,1.6-9.8,4.5c-2.5,2.9-4,6.9-4,11s1.5,8.1,4,11C529.8,418.9,533.4,420.5,536.9,420.5z"/>
				<path class="st2" d="M536.9,447.2c-3.6,0-7.1,1.6-9.8,4.5c-2.5,2.9-4,6.9-4,11c0,4.1,1.5,8.1,4,11s6.1,4.5,9.8,4.5
					c3.6,0,7.1-1.6,9.8-4.5c2.5-2.9,4-6.9,4-11c0-4.1-1.5-8.1-4-11C544.1,448.8,540.5,447.2,536.9,447.2z"/>
			</g>
		</g>
	</g>
	<g id="Play_Button">
		<path id="Play_Ouline" d="M428.2,247.2l-116.1-76.5c-4.3-2.7-9.5-2.9-13.8,0c-4.3,2.7-6.9,7.9-6.9,13.5v153.1
			c0,5.5,2.6,10.6,6.9,13.4c2.1,1.4,4.5,2,6.9,2s4.8-0.7,6.9-2.1l116.1-76.6c4.3-2.7,6.8-7.9,6.8-13.4
			C435,255.1,432.4,249.9,428.2,247.2z"/>
		<path id="Play" class="st1" d="M319,211.2c0,0,0,99.1,0,99l75.2-49.5L319,211.2z"/>
	</g>
</g>
</svg>
