<?xml version="1.0" encoding="utf-8"?>
<!-- Generator: Adobe Illustrator 26.0.1, SVG Export Plug-In . SVG Version: 6.00 Build 0)  -->
<svg version="1.1" id="Videos_Layer" xmlns="http://www.w3.org/2000/svg" xmlns:xlink="http://www.w3.org/1999/xlink" x="0px"
	 y="0px" viewBox="0 0 480 480" style="enable-background:new 0 0 480 480;" xml:space="preserve">
<style type="text/css">
	.st0{display:none;fill:#FF6699;stroke:#000000;stroke-miterlimit:10;}
	.st1{fill:#222220;}
	.st2{fill:#FFFFFF;}
</style>
<rect id="Background" x="0.6" class="st0" width="479.4" height="479.4"/>
<g id="Videos">
	<path d="M469.3,0H117.2c-5.5,0-10,4.5-10,10v38.4L8.7,68.1c-5.4,1.1-8.9,6.3-7.9,11.7l74.4,392.1c0.5,2.7,2.1,5,4.3,6.5
		c1.6,1.1,3.6,1.7,5.5,1.7c0.7,0,1.4-0.1,2.1-0.2l275.6-60.6h106.5c5.5,0,10-4.5,10-10V10C479.3,4.5,474.9,0,469.3,0z M128,15h47.5
		v386H128V15z M93,458L22.3,85.8l84.9-17v340.4c0,5.5,4.5,10,10,10h152.6L93,458z M386,401H196V15h190V401z M460,401h-54.5V15H460
		V401z"/>
	<g id="Right_Perforations">
		<path class="st1" d="M429.6,35.3c-2.9,0-5.7,1.3-7.8,3.6c-2,2.3-3.2,5.5-3.2,8.8s1.2,6.5,3.2,8.8c2.1,2.3,5,3.6,7.8,3.6
			c2.9,0,5.7-1.3,7.8-3.6c2-2.3,3.2-5.5,3.2-8.8s-1.2-6.5-3.2-8.8C435.4,36.6,432.5,35.3,429.6,35.3z"/>
		<path class="st1" d="M429.6,81.4c-2.9,0-5.7,1.3-7.8,3.6c-2,2.3-3.2,5.5-3.2,8.8s1.2,6.5,3.2,8.8c2.1,2.3,5,3.6,7.8,3.6
			c2.9,0,5.7-1.3,7.8-3.6c2-2.3,3.2-5.5,3.2-8.8s-1.2-6.5-3.2-8.8S432.5,81.4,429.6,81.4z"/>
		<path class="st1" d="M429.6,127.4c-2.9,0-5.7,1.3-7.8,3.6c-2,2.3-3.2,5.5-3.2,8.8s1.2,6.5,3.2,8.8c2.1,2.3,5,3.6,7.8,3.6
			c2.9,0,5.7-1.3,7.8-3.6c2-2.3,3.2-5.5,3.2-8.8s-1.2-6.5-3.2-8.8C435.4,128.7,432.5,127.4,429.6,127.4z"/>
		<path class="st1" d="M429.6,173.5c-2.9,0-5.7,1.3-7.8,3.6c-2,2.3-3.2,5.5-3.2,8.8c0,3.3,1.2,6.5,3.2,8.8c2.1,2.3,5,3.6,7.8,3.6
			c2.9,0,5.7-1.3,7.8-3.6c2-2.3,3.2-5.5,3.2-8.8c0-3.3-1.2-6.5-3.2-8.8S432.5,173.5,429.6,173.5z"/>
		<path class="st1" d="M429.6,219.6c-2.9,0-5.7,1.3-7.8,3.6c-2,2.3-3.2,5.5-3.2,8.8c0,3.3,1.2,6.5,3.2,8.8c2.1,2.2,5,3.6,7.8,3.6
			c2.9,0,5.7-1.3,7.8-3.6c2-2.3,3.2-5.5,3.2-8.8c0-3.3-1.2-6.5-3.2-8.8C435.4,220.9,432.5,219.6,429.6,219.6z"/>
		<path class="st1" d="M429.6,265.6c-2.9,0-5.7,1.3-7.8,3.6c-2,2.3-3.2,5.5-3.2,8.8s1.2,6.5,3.2,8.8c2.1,2.3,5,3.6,7.8,3.6
			c2.9,0,5.7-1.3,7.8-3.6c2-2.3,3.2-5.5,3.2-8.8s-1.2-6.5-3.2-8.8S432.5,265.6,429.6,265.6z"/>
		<path class="st1" d="M429.6,311.7c-2.9,0-5.7,1.3-7.8,3.6c-2,2.3-3.2,5.5-3.2,8.8s1.2,6.5,3.2,8.8c2.1,2.3,5,3.6,7.8,3.6
			c2.9,0,5.7-1.3,7.8-3.6c2-2.3,3.2-5.5,3.2-8.8s-1.2-6.5-3.2-8.8S432.5,311.7,429.6,311.7z"/>
		<path class="st1" d="M429.6,357.8c-2.9,0-5.7,1.3-7.8,3.6c-2,2.3-3.2,5.5-3.2,8.8s1.2,6.5,3.2,8.8s4.9,3.6,7.8,3.6
			c2.9,0,5.7-1.3,7.8-3.6c2-2.3,3.2-5.5,3.2-8.8s-1.2-6.5-3.2-8.8S432.5,357.8,429.6,357.8z"/>
	</g>
	<g id="Left_Perforations">
		<g>
			<path class="st2" d="M151.6,35.3c-2.9,0-5.7,1.3-7.8,3.6c-2,2.3-3.2,5.5-3.2,8.8s1.2,6.5,3.2,8.8c2.1,2.3,4.9,3.6,7.8,3.6
				c2.9,0,5.7-1.3,7.8-3.6c2-2.3,3.2-5.5,3.2-8.8s-1.2-6.5-3.2-8.8C157.4,36.6,154.5,35.3,151.6,35.3z"/>
			<path class="st2" d="M151.6,81.3c-2.9,0-5.7,1.3-7.8,3.6c-2,2.3-3.2,5.5-3.2,8.8c0,3.3,1.2,6.5,3.2,8.8s4.9,3.6,7.8,3.6
				c2.9,0,5.7-1.3,7.8-3.6c2-2.3,3.2-5.5,3.2-8.8c0-3.3-1.2-6.5-3.2-8.8C157.3,82.7,154.5,81.3,151.6,81.3z"/>
			<path class="st2" d="M151.6,127.4c-2.9,0-5.7,1.3-7.8,3.6c-2,2.3-3.2,5.5-3.2,8.8s1.2,6.5,3.2,8.8s4.9,3.6,7.8,3.6
				c2.9,0,5.7-1.3,7.8-3.6c2-2.3,3.2-5.5,3.2-8.8s-1.2-6.5-3.2-8.8C157.3,128.7,154.5,127.4,151.6,127.4z"/>
			<path class="st2" d="M151.6,173.5c-2.9,0-5.7,1.3-7.8,3.6c-2,2.3-3.2,5.5-3.2,8.8c0,3.3,1.2,6.5,3.2,8.8c2,2.3,4.9,3.6,7.8,3.6
				c2.9,0,5.7-1.3,7.8-3.6c2-2.3,3.2-5.5,3.2-8.8c0-3.3-1.2-6.5-3.2-8.8C157.3,174.8,154.5,173.5,151.6,173.5z"/>
			<path class="st2" d="M151.6,219.6c-2.9,0-5.7,1.3-7.8,3.6c-2,2.3-3.2,5.5-3.2,8.8c0,3.3,1.2,6.5,3.2,8.8s4.9,3.6,7.8,3.6
				c2.9,0,5.7-1.3,7.8-3.6c2-2.3,3.2-5.5,3.2-8.8c0-3.3-1.2-6.5-3.2-8.8C157.3,220.9,154.5,219.6,151.6,219.6z"/>
			<path class="st2" d="M151.6,265.6c-2.9,0-5.7,1.3-7.8,3.6c-2,2.3-3.2,5.5-3.2,8.8s1.2,6.5,3.2,8.8s4.9,3.6,7.8,3.6
				c2.9,0,5.7-1.3,7.8-3.6c2-2.3,3.2-5.5,3.2-8.8s-1.2-6.5-3.2-8.8C157.3,266.9,154.5,265.6,151.6,265.6z"/>
			<path class="st2" d="M151.6,311.7c-2.9,0-5.7,1.3-7.8,3.6c-2,2.3-3.2,5.5-3.2,8.8s1.2,6.5,3.2,8.8s4.9,3.6,7.8,3.6
				c2.9,0,5.7-1.3,7.8-3.6c2-2.3,3.2-5.5,3.2-8.8s-1.2-6.5-3.2-8.8C157.3,313,154.5,311.7,151.6,311.7z"/>
			<path class="st2" d="M151.6,357.8c-2.9,0-5.7,1.3-7.8,3.6c-2,2.3-3.2,5.5-3.2,8.8s1.2,6.5,3.2,8.8s4.9,3.6,7.8,3.6
				c2.9,0,5.7-1.3,7.8-3.6c2-2.3,3.2-5.5,3.2-8.8s-1.2-6.5-3.2-8.8C157.3,359.1,154.5,357.8,151.6,357.8z"/>
		</g>
		<g>
			<path class="st1" d="M151.6,35.3c-2.9,0-5.7,1.3-7.8,3.6c-2,2.3-3.2,5.5-3.2,8.8s1.2,6.5,3.2,8.8c2.1,2.3,4.9,3.6,7.8,3.6
				c2.9,0,5.7-1.3,7.8-3.6c2-2.3,3.2-5.5,3.2-8.8s-1.2-6.5-3.2-8.8C157.4,36.6,154.5,35.3,151.6,35.3z"/>
			<path class="st1" d="M151.6,81.3c-2.9,0-5.7,1.3-7.8,3.6c-2,2.3-3.2,5.5-3.2,8.8c0,3.3,1.2,6.5,3.2,8.8s4.9,3.6,7.8,3.6
				c2.9,0,5.7-1.3,7.8-3.6c2-2.3,3.2-5.5,3.2-8.8c0-3.3-1.2-6.5-3.2-8.8C157.3,82.7,154.5,81.3,151.6,81.3z"/>
			<path class="st1" d="M151.6,127.4c-2.9,0-5.7,1.3-7.8,3.6c-2,2.3-3.2,5.5-3.2,8.8s1.2,6.5,3.2,8.8s4.9,3.6,7.8,3.6
				c2.9,0,5.7-1.3,7.8-3.6c2-2.3,3.2-5.5,3.2-8.8s-1.2-6.5-3.2-8.8C157.3,128.7,154.5,127.4,151.6,127.4z"/>
			<path class="st1" d="M151.6,173.5c-2.9,0-5.7,1.3-7.8,3.6c-2,2.3-3.2,5.5-3.2,8.8c0,3.3,1.2,6.5,3.2,8.8c2,2.3,4.9,3.6,7.8,3.6
				c2.9,0,5.7-1.3,7.8-3.6c2-2.3,3.2-5.5,3.2-8.8c0-3.3-1.2-6.5-3.2-8.8C157.3,174.8,154.5,173.5,151.6,173.5z"/>
			<path class="st1" d="M151.6,219.6c-2.9,0-5.7,1.3-7.8,3.6c-2,2.3-3.2,5.5-3.2,8.8c0,3.3,1.2,6.5,3.2,8.8s4.9,3.6,7.8,3.6
				c2.9,0,5.7-1.3,7.8-3.6c2-2.3,3.2-5.5,3.2-8.8c0-3.3-1.2-6.5-3.2-8.8C157.3,220.9,154.5,219.6,151.6,219.6z"/>
			<path class="st1" d="M151.6,265.6c-2.9,0-5.7,1.3-7.8,3.6c-2,2.3-3.2,5.5-3.2,8.8s1.2,6.5,3.2,8.8s4.9,3.6,7.8,3.6
				c2.9,0,5.7-1.3,7.8-3.6c2-2.3,3.2-5.5,3.2-8.8s-1.2-6.5-3.2-8.8C157.3,266.9,154.5,265.6,151.6,265.6z"/>
			<path class="st1" d="M151.6,311.7c-2.9,0-5.7,1.3-7.8,3.6c-2,2.3-3.2,5.5-3.2,8.8s1.2,6.5,3.2,8.8s4.9,3.6,7.8,3.6
				c2.9,0,5.7-1.3,7.8-3.6c2-2.3,3.2-5.5,3.2-8.8s-1.2-6.5-3.2-8.8C157.3,313,154.5,311.7,151.6,311.7z"/>
			<path class="st1" d="M151.6,357.8c-2.9,0-5.7,1.3-7.8,3.6c-2,2.3-3.2,5.5-3.2,8.8s1.2,6.5,3.2,8.8s4.9,3.6,7.8,3.6
				c2.9,0,5.7-1.3,7.8-3.6c2-2.3,3.2-5.5,3.2-8.8s-1.2-6.5-3.2-8.8C157.3,359.1,154.5,357.8,151.6,357.8z"/>
		</g>
	</g>
	<path id="Arrow" d="M342.8,197.8L250,136.6c-3.4-2.2-7.6-2.3-11,0c-3.4,2.2-5.5,6.3-5.5,10.8v122.5c0,4.4,2.1,8.5,5.5,10.7
		c1.7,1.1,3.6,1.6,5.5,1.6c1.9,0,3.8-0.6,5.5-1.7l92.8-61.3c3.4-2.2,5.4-6.3,5.4-10.7S346.1,200,342.8,197.8z M255.5,248.2
		c0,0.1,0-79.2,0-79.2l60.1,39.6L255.5,248.2z"/>
</g>
</svg>
