<?xml version="1.0" encoding="utf-8"?>
<!-- Generator: Adobe Illustrator 27.0.0, SVG Export Plug-In . SVG Version: 6.00 Build 0)  -->
<svg version="1.1" id="Little_Person" xmlns="http://www.w3.org/2000/svg" xmlns:xlink="http://www.w3.org/1999/xlink" x="0px"
	 y="0px" viewBox="0 0 94 100" style="enable-background:new 0 0 94 100;" xml:space="preserve">
<style type="text/css">
	.st0{fill-rule:evenodd;clip-rule:evenodd;fill:#231F20;}
</style>
<g id="Person" transform="translate(128.000000, 235.000000)">
	<path id="Body" class="st0" d="M-125.2-135h88.4c1.2,0,3-6.2,3-10.3c0-18.7-11.2-31.6-24.8-38.7c-5.7,5.6-13.7,9.1-22.4,9.1
		c-8.7,0-16.7-3.5-22.4-9.1c-13.6,7-24.8,20.2-24.8,38.7C-128.2-140.8-126.4-135-125.2-135z"/>
	<path id="Heaad" class="st0" d="M-100.5-189.4c0.5,0.5,1,1,1.6,1.5c4.8,4.3,11.1,6.9,18,6.9c6.9,0,13.2-2.6,18-6.9
		c0.5-0.5,1.1-1,1.6-1.5c0.5-0.5,1-1.1,1.5-1.6c3.8-4.6,6-10.5,6-16.9c0-14.9-12.1-27-27-27c-14.9,0-27,12.1-27,27
		c0,6.4,2.2,12.3,6,16.9C-101.5-190.5-101.1-190-100.5-189.4z"/>
</g>
</svg>
